# xmcd CD database file
#
# Track frame offsets:
#	150
#	19758
#	39825
#	65843
#	87953
#
# Disc length: 1462 seconds
#
# Revision: 1
# Processed by: cddbd v1.5.1PL0 Copyright (c) Steve Scherf et al.
# Submitted via: CDex 1.51
#
DISCID=3705b405
DTITLE=GRAPEVINE - Everyman, everywhere
DYEAR=2004
DGENRE=Rock
TTITLE0=Metamorphose
TTITLE1=Reason
TTITLE2=Everyman, everywhere
TTITLE3=スイマー
TTITLE4=作家の顛末
EXTD=YEAR: 2004
EXTT0=
EXTT1=
EXTT2=
EXTT3=
EXTT4=
PLAYORDER=
